<svg width="33" height="33" viewBox="0 0 33 33" fill="none" xmlns="http://www.w3.org/2000/svg">
<g filter="url(#filter0_d_103_33)">
<path d="M26.8213 0.130371C26.6462 0.130281 26.4728 0.161351 26.311 0.221805C26.1492 0.282259 26.0021 0.370912 25.8783 0.482693C25.7545 0.594475 25.6563 0.727193 25.5893 0.87326C25.5223 1.01933 25.4879 1.17588 25.488 1.33396V2.10031C24.3635 3.35891 22.9422 4.37532 21.3277 5.07558C19.7131 5.77583 17.9459 6.1423 16.1547 6.14831H8.15466C7.09415 6.14936 6.07741 6.53011 5.32751 7.20704C4.57762 7.88396 4.15582 8.80177 4.15466 9.75908V12.1663C4.15582 13.1236 4.57762 14.0414 5.32751 14.7183C6.07741 15.3952 7.09415 15.776 8.15466 15.777H8.79972L5.59608 22.5248C5.50902 22.7078 5.47367 22.9075 5.49321 23.1059C5.51275 23.3043 5.58657 23.4952 5.70804 23.6615C5.8295 23.8278 5.99482 23.9642 6.18913 24.0586C6.38345 24.153 6.60068 24.2023 6.82133 24.2021H12.1547C12.4157 24.2023 12.671 24.1332 12.8888 24.0034C13.1066 23.8736 13.2774 23.6889 13.3799 23.4722L17.0116 15.8228C18.6525 15.9315 20.2512 16.3427 21.7091 17.0311C23.167 17.7194 24.4531 18.6702 25.488 19.8248V20.5914C25.488 20.9106 25.6285 21.2167 25.8785 21.4424C26.1286 21.6682 26.4677 21.795 26.8213 21.795C27.1749 21.795 27.5141 21.6682 27.7641 21.4424C28.0142 21.2167 28.1547 20.9106 28.1547 20.5914V1.33396C28.1548 1.17588 28.1203 1.01933 28.0534 0.873258C27.9864 0.72719 27.8882 0.594471 27.7644 0.48269C27.6405 0.370908 27.4935 0.282256 27.3317 0.221802C27.1699 0.161349 26.9965 0.13028 26.8213 0.130371ZM8.15466 13.3698C7.80111 13.3696 7.46211 13.2428 7.21212 13.0171C6.96212 12.7914 6.82157 12.4854 6.82133 12.1663V9.75908C6.82157 9.43994 6.96212 9.13392 7.21212 8.90826C7.46212 8.68259 7.80111 8.55571 8.15466 8.55549H9.488V13.3698H8.15466ZM11.2758 21.795H8.84346L11.7002 15.777H14.1325L11.2758 21.795ZM25.488 16.4051C22.859 14.45 19.5609 13.3774 16.1547 13.3698H12.1547V8.55543H16.1547C19.561 8.54757 22.859 7.4748 25.488 5.51957V16.4051Z" fill="#6644EF"/>
</g>
<defs>
<filter id="filter0_d_103_33" x="0.154663" y="0.130371" width="32" height="32.0718" filterUnits="userSpaceOnUse" color-interpolation-filters="sRGB">
<feFlood flood-opacity="0" result="BackgroundImageFix"/>
<feColorMatrix in="SourceAlpha" type="matrix" values="0 0 0 0 0 0 0 0 0 0 0 0 0 0 0 0 0 0 127 0" result="hardAlpha"/>
<feOffset dy="4"/>
<feGaussianBlur stdDeviation="2"/>
<feComposite in2="hardAlpha" operator="out"/>
<feColorMatrix type="matrix" values="0 0 0 0 0 0 0 0 0 0 0 0 0 0 0 0 0 0 0.25 0"/>
<feBlend mode="normal" in2="BackgroundImageFix" result="effect1_dropShadow_103_33"/>
<feBlend mode="normal" in="SourceGraphic" in2="effect1_dropShadow_103_33" result="shape"/>
</filter>
</defs>
</svg>
