<svg width="25" height="23" viewBox="0 0 25 23" fill="none" xmlns="http://www.w3.org/2000/svg">
<path d="M17.4487 0.130371H6.94873C5.71123 0.130371 4.69873 1.08169 4.69873 2.2444V20.566C4.69873 21.7287 5.71123 22.68 6.94873 22.68H17.4487C18.6862 22.68 19.6987 21.7287 19.6987 20.566V2.2444C19.6987 1.08169 18.6862 0.130371 17.4487 0.130371ZM12.1987 21.2707C11.3692 21.2707 10.6987 20.6407 10.6987 19.8613C10.6987 19.082 11.3692 18.452 12.1987 18.452C13.0282 18.452 13.6987 19.082 13.6987 19.8613C13.6987 20.6407 13.0282 21.2707 12.1987 21.2707ZM18.1987 17.0426H6.19873V2.94908H18.1987V17.0426Z" fill="#6644EF"/>
</svg>
