<svg width="25" height="19" viewBox="0 0 25 19" fill="none" xmlns="http://www.w3.org/2000/svg">
<path d="M22.8334 0.130371H2.43336C1.95597 0.130371 1.49814 0.308878 1.16057 0.626623C0.823004 0.944367 0.633362 1.37532 0.633362 1.82468L0.633362 13.1201C0.633362 13.5694 0.823004 14.0004 1.16057 14.3181C1.49814 14.6359 1.95597 14.8144 2.43336 14.8144H11.4334V15.9439H4.83336C4.67423 15.9439 4.52162 16.0034 4.4091 16.1093C4.29658 16.2153 4.23336 16.3589 4.23336 16.5087V17.6382C4.23336 17.788 4.29658 17.9317 4.4091 18.0376C4.52162 18.1435 4.67423 18.203 4.83336 18.203H20.4334C20.5925 18.203 20.7451 18.1435 20.8576 18.0376C20.9701 17.9317 21.0334 17.788 21.0334 17.6382V16.5087C21.0334 16.3589 20.9701 16.2153 20.8576 16.1093C20.7451 16.0034 20.5925 15.9439 20.4334 15.9439H13.8334V14.8144H22.8334C23.3108 14.8144 23.7686 14.6359 24.1062 14.3181C24.4437 14.0004 24.6334 13.5694 24.6334 13.1201V1.82468C24.6334 1.37532 24.4437 0.944367 24.1062 0.626623C23.7686 0.308878 23.3108 0.130371 22.8334 0.130371V0.130371ZM22.2334 12.5553H3.03336V2.38945H22.2334V12.5553Z" fill="#6644EF"/>
</svg>
