<svg width="25" height="19" viewBox="0 0 25 19" fill="none" xmlns="http://www.w3.org/2000/svg">
<path d="M2.13266 6.45387H7.7244C7.58951 7.30993 7.51812 8.22042 7.51812 9.16394C7.51812 10.1075 7.58951 11.0179 7.7244 11.874H2.13266C1.73467 11.0264 1.51812 10.1142 1.51812 9.16394C1.51812 8.21369 1.73467 7.30152 2.13266 6.45387ZM2.64074 5.55051C4.0692 3.38666 6.74061 1.76985 9.95173 1.22949C9.01679 2.18751 8.30071 3.71025 7.89462 5.55051H2.64074ZM22.5036 6.45387C22.9016 7.30152 23.1181 8.21369 23.1181 9.16394C23.1181 10.1142 22.9016 11.0264 22.5036 11.874H16.9118C17.0467 11.0179 17.1181 10.1075 17.1181 9.16394C17.1181 8.22042 17.0467 7.30993 16.9118 6.45387H22.5036ZM21.9955 5.55051H16.7416C16.3355 3.71025 15.6194 2.18751 14.6845 1.22949C17.8956 1.76985 20.567 3.38666 21.9955 5.55051ZM8.9394 6.45387H15.6968C15.8389 7.30087 15.9181 8.21286 15.9181 9.16394C15.9181 10.115 15.8389 11.027 15.6968 11.874H8.9394C8.79729 11.027 8.71812 10.115 8.71812 9.16394C8.71812 8.21286 8.79729 7.30087 8.9394 6.45387ZM9.12009 5.55051C9.74672 2.8695 11.0198 1.03372 12.3181 1.03372C13.6164 1.03372 14.8895 2.8695 15.5161 5.55051H9.12009ZM2.64074 12.7774H7.89462C8.30071 14.6176 9.01679 16.1404 9.95173 17.0984C6.74061 16.558 4.0692 14.9412 2.64074 12.7774ZM21.9955 12.7774C20.567 14.9412 17.8956 16.558 14.6845 17.0984C15.6194 16.1404 16.3355 14.6176 16.7416 12.7774H21.9955ZM9.12009 12.7774H15.5161C14.8895 15.4584 13.6164 17.2942 12.3181 17.2942C11.0198 17.2942 9.74672 15.4584 9.12009 12.7774ZM12.3181 0.130367C5.6907 0.130367 0.318115 4.17483 0.318115 9.16394C0.318115 14.153 5.6907 18.1975 12.3181 18.1975C18.9455 18.1975 24.3181 14.153 24.3181 9.16394C24.3181 4.17483 18.9455 0.130367 12.3181 0.130367Z" fill="#6644EF"/>
</svg>
