<svg width="28" height="24" viewBox="0 0 28 24" fill="none" xmlns="http://www.w3.org/2000/svg">
<path d="M25.1016 6.30762C26.1953 5.4873 27.1797 4.50293 27.9453 3.35449C26.9609 3.79199 25.8125 4.12012 24.6641 4.22949C25.8672 3.51855 26.7422 2.4248 27.1797 1.05762C26.0859 1.71387 24.8281 2.20605 23.5703 2.47949C22.4766 1.33105 21 0.674805 19.3594 0.674805C16.1875 0.674805 13.6172 3.24512 13.6172 6.41699C13.6172 6.85449 13.6719 7.29199 13.7812 7.72949C9.02344 7.45605 4.75781 5.15918 1.91406 1.71387C1.42188 2.53418 1.14844 3.51855 1.14844 4.6123C1.14844 6.58105 2.13281 8.33105 3.71875 9.37012C2.78906 9.31543 1.85938 9.09668 1.09375 8.65918V8.71387C1.09375 11.5029 3.0625 13.7998 5.6875 14.3467C5.25 14.4561 4.70312 14.5654 4.21094 14.5654C3.82812 14.5654 3.5 14.5107 3.11719 14.4561C3.82812 16.7529 5.96094 18.3936 8.47656 18.4482C6.50781 19.9795 4.04688 20.9092 1.36719 20.9092C0.875 20.9092 0.4375 20.8545 0 20.7998C2.51562 22.4404 5.52344 23.3701 8.80469 23.3701C19.3594 23.3701 25.1016 14.6748 25.1016 7.07324C25.1016 6.7998 25.1016 6.58105 25.1016 6.30762Z" fill="black"/>
</svg>
