<svg width="48" height="48" viewBox="0 0 48 48" fill="none" xmlns="http://www.w3.org/2000/svg">
<path d="M19.9304 1.67646C22.2959 -0.558823 25.7041 -0.558821 28.0696 1.67647L45.6564 18.2954C48.7812 21.2482 48.7812 26.7518 45.6564 29.7046L28.0696 46.3235C25.7041 48.5588 22.2959 48.5588 19.9304 46.3235L2.34359 29.7046C-0.781197 26.7518 -0.781196 21.2482 2.34359 18.2954L19.9304 1.67646Z" fill="#6644EF"/>
<path d="M22.7694 33.9512L19.7274 33.805C18.7627 33.7586 18.4157 32.491 19.2011 31.9289C27.4299 26.0394 28.9433 22.0663 20.2987 16.2775C19.4223 15.6906 19.8524 14.2281 20.906 14.2788L22.7598 14.3681C24.7551 14.3681 26.4731 14.7601 27.9138 15.5442C29.3609 16.322 30.4764 17.4439 31.2605 18.9101C32.0446 20.3699 32.4367 22.1166 32.4367 24.1501C32.4367 26.19 32.0446 27.9431 31.2605 29.4093C30.4828 30.8754 29.3704 32.0006 27.9234 32.7847C26.4763 33.5624 24.7583 33.9512 22.7694 33.9512ZM20.2641 28.916C20.2641 29.4683 20.7119 29.916 21.2641 29.916H22.5877C23.6842 29.916 24.6117 29.7312 25.3703 29.3614C26.1353 28.9853 26.7122 28.3766 27.101 27.5351C27.4963 26.6873 27.6939 25.5589 27.6939 24.1501C27.6939 22.7413 27.4963 21.6193 27.101 20.7843C26.7058 19.9428 26.1225 19.3372 25.3512 18.9675C24.5862 18.5914 23.6427 18.4033 22.5208 18.4033H21.2641C20.7118 18.4033 20.2641 18.851 20.2641 19.4033V28.916Z" fill="white"/>
</svg>
